# Blender v2.92.0 OBJ File: 'dado.blend'
# www.blender.org
mtllib dado.mtl
o Cube
v 0.994349 3.697821 -1.176250
v 0.994349 1.983225 -0.146610
v 0.994349 4.727461 0.538346
v 0.994349 3.012865 1.567986
v -1.005651 3.697821 -1.176250
v -1.005651 1.983225 -0.146610
v -1.005651 4.727461 0.538346
v -1.005651 3.012865 1.567986
v 1.526193 3.020045 -0.362482
v 1.526193 3.690641 0.754219
v 0.645640 4.668590 -0.592756
v -0.656941 4.668590 -0.592756
v -0.005651 4.702318 1.173817
v -0.005651 3.585617 1.844413
v -1.537495 3.690641 0.754219
v -1.537495 3.020045 -0.362482
v -0.005651 2.008368 -0.782081
v -0.005651 3.125069 -1.452677
v -0.656941 2.042096 0.984493
v 0.645640 2.042096 0.984493
vt 0.324436 0.785293
vt 0.294142 0.664582
vt 0.391996 0.600002
vt 0.669413 0.796946
vt 0.627805 0.664127
vt 0.732053 0.596805
vt 0.246020 0.139748
vt 0.290810 0.023931
vt 0.409484 0.017292
vt 0.727143 0.988673
vt 0.607348 0.988776
vt 0.572959 0.877551
vt 0.523229 0.331013
vt 0.396273 0.331970
vt 0.355443 0.211553
vt 0.394255 0.349922
vt 0.522056 0.343015
vt 0.562522 0.460227
vt 0.520000 0.990000
vt 0.389286 0.995714
vt 0.352143 0.867857
vt 0.467659 0.540868
vt 0.665649 0.547344
vt 0.626283 0.662250
vt 0.500224 0.673252
vt 0.660259 0.793201
vt 0.568025 0.857172
vt 0.377143 0.338571
vt 0.275000 0.407143
vt 0.180714 0.333571
vt 0.722216 0.334923
vt 0.527224 0.340223
vt 0.568345 0.222789
vt 0.501429 0.020000
vt 0.666429 0.133571
vt 0.565000 0.205000
vt 0.489849 0.672564
vt 0.454430 0.787561
vt 0.830587 0.669483
vt 0.795052 0.788016
vt 0.448476 0.134640
vt 0.349802 0.204136
vt 0.669999 0.800613
vt 0.769795 0.866224
vt 0.455163 0.138292
vt 0.558142 0.218218
vt 0.466194 0.539888
vt 0.360193 0.467123
vt 0.455000 0.802857
vt 0.557143 0.880000
vt 0.503074 0.656217
vt 0.571167 0.469489
vt 0.461602 0.791729
vt 0.623544 0.679049
vt 0.223571 0.220000
vt 0.348571 0.222857
vt 0.689919 0.230492
vt 0.623084 0.405068
vt 0.465000 0.134286
vt 0.623571 0.011429
vn 0.0486 0.9981 -0.0370
vn -0.4822 0.4087 0.7749
vn -0.8747 0.4384 -0.2066
vn -0.0486 -0.5017 0.8637
vn 0.8747 0.3883 -0.2899
vn 0.4822 -0.4920 -0.7249
vn 0.8747 -0.4384 0.2066
vn 0.0000 0.4867 -0.8736
vn 0.4984 0.4463 0.7433
vn -0.8747 -0.3883 0.2899
vn -0.4984 -0.4463 -0.7433
vn 0.0000 -0.9998 0.0191
vn -0.0486 0.9981 -0.0370
vn 0.0000 0.9998 -0.0191
vn -0.4822 0.4920 0.7249
vn -0.4984 0.4463 0.7433
vn -0.8670 0.4272 -0.2566
vn -0.8747 0.3883 -0.2899
vn 0.0486 -0.5017 0.8637
vn 0.0000 -0.4867 0.8736
vn 0.8670 0.4272 -0.2566
vn 0.8747 0.4384 -0.2066
vn 0.4822 -0.4087 -0.7749
vn 0.4984 -0.4463 -0.7433
vn 0.8747 -0.3883 0.2899
vn 0.8670 -0.4272 0.2566
vn -0.0486 0.5017 -0.8637
vn 0.0486 0.5017 -0.8637
vn 0.4822 0.4920 0.7249
vn 0.4822 0.4087 0.7749
vn -0.8747 -0.4384 0.2066
vn -0.8670 -0.4272 0.2566
vn -0.4822 -0.4087 -0.7749
vn -0.4822 -0.4920 -0.7249
vn 0.0486 -0.9981 0.0370
vn -0.0486 -0.9981 0.0370
usemtl Material
s off
f 12/1/1 7/2/1 13/3/1
f 13/4/2 7/5/2 15/6/2
f 12/7/3 5/8/3 16/9/3
f 20/10/4 4/11/4 14/12/4
f 11/13/5 3/14/5 10/15/5
f 18/16/6 1/17/6 9/18/6
f 10/19/7 4/20/7 20/21/7
f 18/22/8 12/23/8 11/24/8
f 10/25/9 13/26/9 14/27/9
f 16/28/10 6/29/10 19/30/10
f 16/31/11 18/32/11 17/33/11
f 17/34/12 20/35/12 19/36/12
f 3/37/13 11/38/13 13/3/13
f 11/38/14 12/1/14 13/3/14
f 8/39/15 14/40/15 15/6/15
f 14/40/16 13/4/16 15/6/16
f 16/9/17 15/41/17 12/7/17
f 15/41/18 7/42/18 12/7/18
f 8/43/19 19/44/19 14/12/19
f 19/44/20 20/10/20 14/12/20
f 10/15/21 9/45/21 11/13/21
f 9/45/22 1/46/22 11/13/22
f 2/47/23 17/48/23 9/18/23
f 17/48/24 18/16/24 9/18/24
f 20/21/25 2/49/25 9/50/25
f 9/50/26 10/19/26 20/21/26
f 11/24/27 1/51/27 18/22/27
f 18/22/28 5/52/28 12/23/28
f 14/27/29 4/53/29 10/25/29
f 10/25/30 3/54/30 13/26/30
f 19/30/31 8/55/31 15/56/31
f 15/56/32 16/28/32 19/30/32
f 17/33/33 6/57/33 16/31/33
f 16/31/34 5/58/34 18/32/34
f 19/36/35 6/59/35 17/34/35
f 17/34/36 2/60/36 20/35/36
